# xmcd
#
# Track frame offsets:
#	150
#	14663
#	28416
#	41610
#	53060
#	67188
#	80030
#	93835
#	108350
#	120987
#	125038
#	137014
#	152479
#	165070
#	179248
#	191668
#	206821
#	220072
#	232856
#	244846
#
# Disc length: 3420
#
# Revision: 1
# Processed by: cddbd v1.5.1PL0 Copyright (c) Steve Scherf et al.
# Submitted via: audiograbber 1.82.00
# Normalized: r0:DSETVAR1
#
DISCID=1b0d5a14
DTITLE=Various Artist - Swingin' Christmas
DYEAR=1900
DGENRE=
TTITLE0=Louis Prima - What will Santa Claus Say
TTITLE1=Fats Waller - Swingin them Jingle Bells
TTITLE2=Dick Robertson - I Want You for Christmas
TTITLE3=Benny Goodman - Jingle Bells
TTITLE4=Benny Goodman - Santa Claus Came in the Spring
TTITLE5=Dick Robertson - Meet Me Under the Mistletoe
TTITLE6=Benny Goodman - Winter Weather
TTITLE7=Woody Herman - Let It Snow
TTITLE8=Les Brown - I've Got My Love to Keep Me Warm
TTITLE9=Harry James - Brazilian Sleigh Bells
TTITLE10=Woody Herman - Santa Clause is Coming to Town
TTITLE11=Glenn Miller - Jingle Bells
TTITLE12=Johnny Otis - Happy New Year Baby
TTITLE13=Ella Fitzgerald - Santa Claus got Stuck in My Chimney
TTITLE14=Lionel Hampton - Boogie Woogie Santa Claus
TTITLE15=Lionel Hampton - Merry Christmas Baby
TTITLE16=Louis Armstrong - Cool Yule
TTITLE17=Louis Armstrong - Zat You, Santa Claus
TTITLE18=Les Brown - Let It Snow
TTITLE19=Billy May - Rudolph the Red Reindeer Mambo
EXTD=
EXTT0=
EXTT1=
EXTT2=
EXTT3=
EXTT4=
EXTT5=
EXTT6=
EXTT7=
EXTT8=
EXTT9=
EXTT10=
EXTT11=
EXTT12=
EXTT13=
EXTT14=
EXTT15=
EXTT16=
EXTT17=
EXTT18=
EXTT19=
PLAYORDER=
